<svg width="749" height="714" viewBox="0 0 749 714" fill="none" xmlns="http://www.w3.org/2000/svg">
<g clip-path="url(#clip0_0_1)">
<path d="M371.904 0.980634C365.282 1.30788 358.795 2.91852 352.821 5.71808L92.4322 127.781C85.6927 130.939 79.771 135.533 75.1068 141.223C70.4427 146.914 67.1559 153.553 65.4908 160.649L1.25099 434.833C-0.232396 441.15 -0.398409 447.693 0.762784 454.074C1.92398 460.454 4.38878 466.544 8.01132 471.981C8.8897 473.31 9.83439 474.597 10.842 475.836L191.073 695.687C195.738 701.376 201.661 705.969 208.4 709.125C215.14 712.281 222.524 713.919 230.003 713.918L519.032 713.852C526.509 713.858 533.891 712.225 540.631 709.074C547.37 705.924 553.294 701.337 557.963 695.654L738.127 475.771C742.795 470.079 746.084 463.437 747.75 456.339C749.416 449.24 749.417 441.867 747.751 434.768L683.412 160.584C681.746 153.488 678.46 146.848 673.796 141.158C669.131 135.468 663.21 130.873 656.47 127.716L396.048 5.71808C388.534 2.19645 380.232 0.567472 371.904 0.980634Z" fill="#326CE5"/>
<path d="M380.913 109.204L611.793 182.892L602.173 484.051L380.913 605.796L156.447 484.051L137.207 182.892L380.913 109.204Z" fill="black" stroke="#777777"/>
<path d="M143.62 192.503L204.547 218.134L207.753 314.248L150.033 285.414" fill="#0000FF"/>
<path d="M214.167 221.338L281.507 250.172L284.713 349.49L217.373 317.452" fill="#0000FF"/>
<path d="M291.127 253.376L371.293 282.21V387.936L294.333 352.694" fill="#0000FF"/>
<path d="M150.033 298.229L207.753 327.064L210.96 416.771L156.447 387.936" fill="#0000FF"/>
<path d="M217.373 330.268L284.713 362.306L287.92 455.217L220.58 419.975" fill="#0000FF"/>
<path d="M294.333 365.51L371.293 400.752V496.866L297.54 458.42" fill="#0000FF"/>
<path d="M156.447 397.548L210.96 429.586L214.167 509.682L162.86 480.847" fill="#0000FF"/>
<path d="M220.58 432.79L287.92 468.032V548.127L223.787 512.885" fill="#0000FF"/>
<path d="M297.54 471.236L371.293 509.682V592.981L297.54 551.331" fill="#0000FF"/>
<path d="M226.993 163.669L287.92 182.892L207.753 208.522L146.827 186.096" fill="white"/>
<path d="M313.573 138.038L368.087 157.261L297.54 179.688L239.82 160.465" fill="white"/>
<path d="M380.913 115.611L438.633 134.834L377.707 154.057L319.987 134.834" fill="white"/>
<path d="M294.333 186.096L368.087 211.726L287.92 240.561L214.167 211.726" fill="white"/>
<path d="M377.707 160.465L451.46 182.892L377.707 208.522L307.16 182.892" fill="white"/>
<path d="M445.047 138.038L518.8 160.465L457.873 179.688L387.327 157.261" fill="white"/>
<path d="M377.707 214.93L454.667 243.764L377.707 272.599L297.54 243.764" fill="white"/>
<path d="M457.873 186.096L538.04 211.726L464.287 240.561L387.327 211.726" fill="white"/>
<path d="M525.213 163.669L602.173 186.096L547.66 208.522L467.493 182.892" fill="white"/>
<path d="M380.913 384.732L457.873 352.694L461.08 250.172L380.913 282.21" fill="#FF0000"/>
<path d="M538.04 221.338L534.833 317.452L467.493 349.49L470.7 250.172" fill="#FF0000"/>
<path d="M605.38 192.503L602.173 285.414L544.453 314.248L547.66 218.134" fill="#FF0000"/>
<path d="M380.913 496.866L454.667 458.42L457.873 365.51L380.913 397.548" fill="#FF0000"/>
<path d="M534.833 330.268L531.627 419.975L464.287 455.217L467.493 362.306" fill="#FF0000"/>
<path d="M602.173 298.229L598.967 384.732L541.247 416.771L544.453 327.064" fill="#FF0000"/>
<path d="M380.913 596.185L451.46 557.739L454.667 471.236L380.913 509.682" fill="#FF0000"/>
<path d="M531.627 432.79L528.42 516.089L461.08 554.535L464.287 468.032" fill="#FF0000"/>
<path d="M598.967 394.344L595.76 477.643L538.04 509.682L541.247 426.382" fill="#FF0000"/>
</g>
<defs>
<clipPath id="clip0_0_1">
<rect width="749" height="713" fill="white" transform="translate(0 0.917786)"/>
</clipPath>
</defs>
</svg>
